<?xml version="1.0" encoding="UTF-8"?>
<svg width="300px" height="314px" viewBox="0 0 300 314" version="1.1" xmlns="http://www.w3.org/2000/svg" xmlns:xlink="http://www.w3.org/1999/xlink">
    <!-- Generator: Sketch 46.2 (44496) - http://www.bohemiancoding.com/sketch -->
    <title>Illustration-stream</title>
    <desc>Created with Sketch.</desc>
    <defs>
        <path d="M206.369089,151.677842 L8.65964825,151.677842 C3.91023864,151.677842 0.0582758519,147.808268 0.0582758519,143.03463 L0.0582758519,0 L214.970461,0 L214.970461,143.03463 C214.970461,147.808268 211.119619,151.677842 206.369089,151.677842" id="path-1"></path>
        <polygon id="path-3" points="0.527729195 149.87665 88.8871032 149.87665 88.8871032 0.1335717 0.527729195 0.1335717"></polygon>
    </defs>
    <g id="VPN+Text" stroke="none" stroke-width="1" fill="none" fill-rule="evenodd">
        <g id="VPN---1.2" transform="translate(-810.000000, -3425.000000)">
            <g id="4" transform="translate(0.000000, 3379.000000)">
                <g id="Illustration-stream" transform="translate(810.000000, 47.000000)">
                    <path d="M300,163 C300,245.84265 232.842903,313 150.000565,313 C67.1570972,313 0,245.84265 0,163 C0,80.1573501 67.1570972,13 150.000565,13 C232.842903,13 300,80.1573501 300,163" id="Fill-1" fill="#F2FAFD"></path>
                    <path d="M266,161.5 C266,225.841213 213.840961,278 149.499437,278 C85.1590392,278 33,225.841213 33,161.5 C33,97.1587873 85.1590392,45 149.499437,45 C213.840961,45 266,97.1587873 266,161.5" id="Fill-3" fill="#E7F6FC"></path>
                    <path d="M17,78 C17,79.6562721 15.6570973,81 13.9994684,81 C12.3429027,81 11,79.6562721 11,78 C11,76.3437279 12.3429027,75 13.9994684,75 C15.6570973,75 17,76.3437279 17,78 Z" id="Stroke-5" stroke="#F9515D" stroke-width="2" stroke-linecap="round" stroke-linejoin="round"></path>
                    <g id="Group-19" transform="translate(51.000000, 252.000000)" fill="#FFFFFF">
                        <path d="M0.329251284,0.701942836 L0.329251284,9.94938492" id="Fill-16"></path>
                    </g>
                    <g id="Group-23" transform="translate(46.000000, 257.000000)" fill="#FFFFFF">
                        <path d="M9.74799432,0.526794884 L0.482792644,0.526794884" id="Fill-20"></path>
                    </g>
                    <path d="M152,262 C152,263.656272 150.657097,265 148.999468,265 C147.342903,265 146,263.656272 146,262 C146,260.343728 147.342903,259 148.999468,259 C150.657097,259 152,260.343728 152,262 Z" id="Stroke-28" stroke="#FA505D" stroke-width="2" stroke-linecap="round"></path>
                    <path d="M6,192.5 C6,193.880665 4.88032638,195 3.49924448,195 C2.11967362,195 1,193.880665 1,192.5 C1,191.119335 2.11967362,190 3.49924448,190 C4.88032638,190 6,191.119335 6,192.5" id="Fill-30" fill="#95D1FC"></path>
                    <g id="Page-1" transform="translate(32.000000, 82.000000)">
                        <g>
                            <mask id="mask-2" fill="white">
                                <use xlink:href="#path-1"></use>
                            </mask>
                            <use id="Mask" fill="#FFFFFF" xlink:href="#path-1"></use>
                            <g mask="url(#mask-2)">
                                <g transform="translate(9.022100, 10.132722)">
                                    <path d="M192.704802,66.1182628 L3.33119714,66.1182628 C1.49148716,66.1182628 0.000224081605,64.6197458 0.000224081605,62.7699611 L0.000224081605,11.2371887 C0.000224081605,9.38740401 1.49148716,7.88888701 3.33119714,7.88888701 L192.704802,7.88888701 C194.544512,7.88888701 196.036896,9.38740401 196.036896,11.2371887 L196.036896,62.7699611 C196.036896,64.6197458 194.544512,66.1182628 192.704802,66.1182628" id="Fill-1" stroke="none" fill="#F2FAFD" fill-rule="evenodd"></path>
                                    <path d="M192.704802,131.610886 L138.436719,131.610886 C136.597009,131.610886 135.105746,130.112369 135.105746,128.262585 L135.105746,76.7298122 C135.105746,74.8800275 136.597009,73.3815105 138.436719,73.3815105 L192.704802,73.3815105 C194.544512,73.3815105 196.036896,74.8800275 196.036896,76.7298122 L196.036896,128.262585 C196.036896,130.112369 194.544512,131.610886 192.704802,131.610886 Z" id="Stroke-3" stroke="#BEE4FE" stroke-width="2" fill="none" stroke-linecap="round" stroke-linejoin="round"></path>
                                    <path d="M125.152153,131.610886 L70.8840702,131.610886 C69.0443602,131.610886 67.5530971,130.112369 67.5530971,128.262585 L67.5530971,76.7298122 C67.5530971,74.8800275 69.0443602,73.3815105 70.8840702,73.3815105 L125.152153,73.3815105 C126.991863,73.3815105 128.484247,74.8800275 128.484247,76.7298122 L128.484247,128.262585 C128.484247,130.112369 126.991863,131.610886 125.152153,131.610886 Z" id="Stroke-5" stroke="#BEE4FE" stroke-width="2" fill="none" stroke-linecap="round" stroke-linejoin="round"></path>
                                    <path d="M113.800627,39.75596 C113.800627,46.0314925 108.737503,51.1181189 102.49347,51.1181189 C96.2483152,51.1181189 91.1851913,46.0314925 91.1851913,39.75596 C91.1851913,33.4804275 96.2483152,28.393801 102.49347,28.393801 C108.737503,28.393801 113.800627,33.4804275 113.800627,39.75596" id="Fill-7" stroke="none" fill="#FFAFBC" fill-rule="evenodd"></path>
                                    <path d="M110.390441,39.75596 C110.390441,44.1389252 106.854434,47.692133 102.492685,47.692133 C98.1309368,47.692133 94.5960495,44.1389252 94.5960495,39.75596 C94.5960495,35.3729948 98.1309368,31.8197869 102.492685,31.8197869 C106.854434,31.8197869 110.390441,35.3729948 110.390441,39.75596" id="Fill-9" stroke="none" fill="#FFAFBC" fill-rule="evenodd"></path>
                                    <path d="M57.5995043,131.610886 L3.33142122,131.610886 C1.49171124,131.610886 0.00044816321,130.112369 0.00044816321,128.262585 L0.00044816321,76.7298122 C0.00044816321,74.8800275 1.49171124,73.3815105 3.33142122,73.3815105 L57.5995043,73.3815105 C59.4392143,73.3815105 60.9315977,74.8800275 60.9315977,76.7298122 L60.9315977,128.262585 C60.9315977,130.112369 59.4392143,131.610886 57.5995043,131.610886 Z" id="Stroke-11" stroke="#BEE4FE" stroke-width="2" fill="none" stroke-linecap="round" stroke-linejoin="round"></path>
                                    <path d="M7.82761862,80.779321 L52.0467621,80.779321" id="Stroke-13" stroke="#BEE4FE" stroke-width="2" fill="none" stroke-linecap="round" stroke-linejoin="round"></path>
                                    <path d="M7.82761862,86.3503086 L31.5376932,86.3503086" id="Stroke-15" stroke="#BEE4FE" stroke-width="2" fill="none" stroke-linecap="round" stroke-linejoin="round"></path>
                                    <path d="M106.995157,80.779321 L120.127459,80.779321" id="Stroke-17" stroke="#BEE4FE" stroke-width="2" fill="none" stroke-linecap="round" stroke-linejoin="round"></path>
                                    <path d="M75.9088761,80.779321 L99.5987833,80.779321" id="Stroke-19" stroke="#BEE4FE" stroke-width="2" fill="none" stroke-linecap="round" stroke-linejoin="round"></path>
                                    <path d="M75.9088761,86.3503086 L110.721074,86.3503086" id="Stroke-21" stroke="#BEE4FE" stroke-width="2" fill="none" stroke-linecap="round" stroke-linejoin="round"></path>
                                    <path d="M75.9088761,91.9212963 L85.923083,91.9212963" id="Stroke-23" stroke="#BEE4FE" stroke-width="2" fill="none" stroke-linecap="round" stroke-linejoin="round"></path>
                                    <path d="M178.88625,181.057099 L196.036335,181.057099" id="Stroke-25" stroke="#BEE4FE" stroke-width="2" fill="none" stroke-linecap="round" stroke-linejoin="round"></path>
                                    <path d="M138.289049,181.057099 L169.226876,181.057099" id="Stroke-27" stroke="#BEE4FE" stroke-width="2" fill="none" stroke-linecap="round" stroke-linejoin="round"></path>
                                    <path d="M138.289049,186.628086 L183.751846,186.628086" id="Stroke-29" stroke="#BEE4FE" stroke-width="2" fill="none" stroke-linecap="round" stroke-linejoin="round"></path>
                                    <path d="M181.286836,208.912037 L196.037008,208.912037" id="Stroke-31" stroke="#BEE4FE" stroke-width="2" fill="none" stroke-linecap="round" stroke-linejoin="round"></path>
                                    <path d="M138.289049,208.912037 L170.685647,208.912037" id="Stroke-33" stroke="#BEE4FE" stroke-width="2" fill="none" stroke-linecap="round" stroke-linejoin="round"></path>
                                    <path d="M166.104747,217.268519 L196.036447,217.268519" id="Stroke-35" stroke="#BEE4FE" stroke-width="2" fill="none" stroke-linecap="round" stroke-linejoin="round"></path>
                                    <path d="M138.289049,217.268519 L153.764125,217.268519" id="Stroke-37" stroke="#BEE4FE" stroke-width="2" fill="none" stroke-linecap="round" stroke-linejoin="round"></path>
                                    <path d="M138.289049,192.199074 L151.367572,192.199074" id="Stroke-39" stroke="#BEE4FE" stroke-width="2" fill="none" stroke-linecap="round" stroke-linejoin="round"></path>
                                    <path d="M164.294504,83.5648148 L187.963123,83.5648148" id="Stroke-45" stroke="#C5D6E2" stroke-width="2" fill="none" stroke-linecap="round" stroke-linejoin="round"></path>
                                    <path d="M164.294504,90.0643004 L181.288853,90.0643004" id="Stroke-47" stroke="#C5D6E2" stroke-width="2" fill="none" stroke-linecap="round" stroke-linejoin="round"></path>
                                    <path d="M50.3048638,125.015948 L9.56906881,125.015948 C8.60775873,125.015948 7.82795474,124.232351 7.82795474,123.266365 L7.82795474,103.221589 C7.82795474,102.255603 8.60775873,101.472005 9.56906881,101.472005 L50.3048638,101.472005 C51.2661738,101.472005 52.0459778,102.255603 52.0459778,103.221589 L52.0459778,123.266365 C52.0459778,124.232351 51.2661738,125.015948 50.3048638,125.015948" id="Fill-49" stroke="none" fill="#E7F6FC" fill-rule="evenodd"></path>
                                    <path d="M118.386233,125.015948 L77.6504383,125.015948 C76.6891282,125.015948 75.9093242,124.232351 75.9093242,123.266365 L75.9093242,103.221589 C75.9093242,102.255603 76.6891282,101.472005 77.6504383,101.472005 L118.386233,101.472005 C119.347543,101.472005 120.127347,102.255603 120.127347,103.221589 L120.127347,123.266365 C120.127347,124.232351 119.347543,125.015948 118.386233,125.015948" id="Fill-51" stroke="none" fill="#E7F6FC" fill-rule="evenodd"></path>
                                    <path d="M186.467491,125.015948 L145.731696,125.015948 C144.770386,125.015948 143.990582,124.232351 143.990582,123.266365 L143.990582,103.221589 C143.990582,102.255603 144.770386,101.472005 145.731696,101.472005 L186.467491,101.472005 C187.428801,101.472005 188.208605,102.255603 188.208605,103.221589 L188.208605,123.266365 C188.208605,124.232351 187.428801,125.015948 186.467491,125.015948" id="Fill-53" stroke="none" fill="#E7F6FC" fill-rule="evenodd"></path>
                                    <path d="M157.958372,87.5610165 C157.958372,91.4373456 154.831314,94.5784895 150.973749,94.5784895 C147.117304,94.5784895 143.990246,91.4373456 143.990246,87.5610165 C143.990246,83.6846874 147.117304,80.5435436 150.973749,80.5435436 C154.831314,80.5435436 157.958372,83.6846874 157.958372,87.5610165" id="Fill-55" stroke="none" fill="#BCE7F7" fill-rule="evenodd"></path>
                                    <path d="M125.152153,238.778157 L3.33130918,238.778157 C1.4915992,238.778157 0.000336122407,237.27964 0.000336122407,235.429855 L0.000336122407,183.897083 C0.000336122407,182.047298 1.4915992,180.548781 3.33130918,180.548781 L125.152153,180.548781 C126.991863,180.548781 128.484247,182.047298 128.484247,183.897083 L128.484247,235.429855 C128.484247,237.27964 126.991863,238.778157 125.152153,238.778157 Z" id="Stroke-57" stroke="#BEE4FE" stroke-width="2" fill="none" stroke-linecap="round" stroke-linejoin="round"></path>
                                    <path d="M7.82761862,187.556584 L52.0467621,187.556584" id="Stroke-59" stroke="#BEE4FE" stroke-width="2" fill="none" stroke-linecap="round" stroke-linejoin="round"></path>
                                    <path d="M7.82761862,193.127572 L31.5376932,193.127572" id="Stroke-61" stroke="#BEE4FE" stroke-width="2" fill="none" stroke-linecap="round" stroke-linejoin="round"></path>
                                    <path d="M50.3048638,232.183106 L9.56906881,232.183106 C8.60775873,232.183106 7.82795474,231.399509 7.82795474,230.433523 L7.82795474,210.388747 C7.82795474,209.422761 8.60775873,208.639164 9.56906881,208.639164 L50.3048638,208.639164 C51.2661738,208.639164 52.0459778,209.422761 52.0459778,210.388747 L52.0459778,230.433523 C52.0459778,231.399509 51.2661738,232.183106 50.3048638,232.183106" id="Fill-63" stroke="none" fill="#E7F6FC" fill-rule="evenodd"></path>
                                    <path d="M71.2056273,187.556584 L115.424771,187.556584" id="Stroke-65" stroke="#BEE4FE" stroke-width="2" fill="none" stroke-linecap="round" stroke-linejoin="round"></path>
                                    <path d="M71.2056273,193.127572 L94.9157019,193.127572" id="Stroke-67" stroke="#BEE4FE" stroke-width="2" fill="none" stroke-linecap="round" stroke-linejoin="round"></path>
                                    <path d="M113.682872,232.183106 L72.9470775,232.183106 C71.9857674,232.183106 71.2059634,231.399509 71.2059634,230.433523 L71.2059634,210.388747 C71.2059634,209.422761 71.9857674,208.639164 72.9470775,208.639164 L113.682872,208.639164 C114.644183,208.639164 115.423986,209.422761 115.423986,210.388747 L115.423986,230.433523 C115.423986,231.399509 114.644183,232.183106 113.682872,232.183106" id="Fill-69" stroke="none" fill="#E7F6FC" fill-rule="evenodd"></path>
                                    <path d="M67.552649,146.702675 L128.483799,146.702675" id="Stroke-75" stroke="#C5D6E2" stroke-width="2" fill="none" stroke-linecap="round" stroke-linejoin="round"></path>
                                    <path d="M67.552649,154.130658 L128.483799,154.130658" id="Stroke-77" stroke="#C5D6E2" stroke-width="2" fill="none" stroke-linecap="round" stroke-linejoin="round"></path>
                                    <path d="M82.4750273,160.630144 L113.560748,160.630144" id="Stroke-79" stroke="#C5D6E2" stroke-width="2" fill="none" stroke-linecap="round" stroke-linejoin="round"></path>
                                    <g id="Group-108" stroke="none" stroke-width="1" fill="none" fill-rule="evenodd" transform="translate(0.000000, 0.147487)">
                                        <path d="M0,0 L21.0468647,0" id="Fill-105" fill="#FFFFFF"></path>
                                        <path d="M0,0 L21.0468647,0" id="Stroke-107" stroke="#021738" stroke-width="2" stroke-linecap="round" stroke-linejoin="round"></path>
                                    </g>
                                    <g id="Group-112" stroke="none" stroke-width="1" fill="none" fill-rule="evenodd" transform="translate(118.763251, 0.147487)">
                                        <path d="M0.310465063,0 L10.8344576,0" id="Fill-109" fill="#FFFFFF"></path>
                                        <path d="M0.310465063,0 L10.8344576,0" id="Stroke-111" stroke="#021738" stroke-width="2" stroke-linecap="round" stroke-linejoin="round"></path>
                                    </g>
                                    <g id="Group-116" stroke="none" stroke-width="1" fill="none" fill-rule="evenodd" transform="translate(135.569371, 0.147487)">
                                        <path d="M0.612863189,0 L17.4929305,0" id="Fill-113" fill="#FFFFFF"></path>
                                        <path d="M0.612863189,0 L17.4929305,0" id="Stroke-115" stroke="#021738" stroke-width="2" stroke-linecap="round" stroke-linejoin="round"></path>
                                    </g>
                                    <g id="Group-120" stroke="none" stroke-width="1" fill="none" fill-rule="evenodd" transform="translate(159.097939, 0.147487)">
                                        <path d="M0.292090372,0 L12.2625297,0" id="Fill-117" fill="#FFFFFF"></path>
                                        <path d="M0.292090372,0 L12.2625297,0" id="Stroke-119" stroke="#021738" stroke-width="2" stroke-linecap="round" stroke-linejoin="round"></path>
                                    </g>
                                    <g id="Group-124" stroke="none" stroke-width="1" fill="none" fill-rule="evenodd" transform="translate(178.144876, 0.147487)">
                                        <path d="M0.226658543,0 L17.8921319,0" id="Fill-121" fill="#FFFFFF"></path>
                                        <path d="M0.226658543,0 L17.8921319,0" id="Stroke-123" stroke="#021738" stroke-width="2" stroke-linecap="round" stroke-linejoin="round"></path>
                                    </g>
                                    <path d="M53.3190975,66.1182628 L75.1009499,49.9835918 C78.5372413,47.4391527 83.2407142,47.5112076 86.5963362,50.1614774 L88.6018666,51.7455596 C90.8057091,53.486136 93.6627496,54.1582733 96.4066288,53.581834 L110.77026,50.5667863 C112.590923,50.1851204 114.483292,50.3483698 116.210961,51.0373949 L136.182234,59.0005885 L148.991859,66.1182628 L53.3190975,66.1182628 Z" id="Fill-141" stroke="none" fill="#E7F6FC" fill-rule="evenodd"></path>
                                    <path d="M0,44.0061865 L9.67248247,35.296549 C13.460582,31.8863251 19.2508507,32.0822244 22.8014237,35.7412629 L35.1494405,48.4679618 C38.2249606,51.6383779 43.0684844,52.2643549 46.8431391,49.9777373 L50.4878264,47.7710557 C53.4781954,45.9595501 57.2181174,45.944914 60.2230517,47.7339023 L77.8235414,58.2111369 C79.8167472,59.3966654 82.1718449,59.8098553 84.4462732,59.3718965 L95.6391494,57.2181301 C97.1998777,56.9175261 98.8110245,57.0154757 100.324696,57.5040981 L127.038584,66.1180376 L3.56513833,66.1180376 L0,64.576738 L0,44.0061865 Z" id="Fill-143" stroke="none" fill="#BEE4FE" fill-rule="evenodd"></path>
                                    <path d="M196.036447,34.3378809 L192.855609,32.0681512 C188.921857,29.2591355 183.517008,29.8648471 180.294715,33.4743478 L170.251377,44.7272986 C167.469404,47.8447994 162.990013,48.7736322 159.206395,47.0184196 L153.20773,44.2341728 C150.156859,42.8178434 146.587239,43.1297061 143.824313,45.0526715 L113.560972,66.1186006 L191.477507,66.1186006 L196.036447,63.9592049 L196.036447,34.3378809 Z" id="Fill-145" stroke="none" fill="#92D1FD" fill-rule="evenodd"></path>
                                    <path d="M192.704802,66.1182628 L3.33119714,66.1182628 C1.49148716,66.1182628 0.000224081605,64.6197458 0.000224081605,62.7699611 L0.000224081605,11.2371887 C0.000224081605,9.38740401 1.49148716,7.88888701 3.33119714,7.88888701 L192.704802,7.88888701 C194.544512,7.88888701 196.036896,9.38740401 196.036896,11.2371887 L196.036896,62.7699611 C196.036896,64.6197458 194.544512,66.1182628 192.704802,66.1182628 Z" id="Stroke-147" stroke="#92D1FD" stroke-width="2" fill="none" stroke-linecap="round" stroke-linejoin="round"></path>
                                    <path d="M57.8829675,29.2001405 L38.1100067,29.2001405 C35.3313948,29.2001405 33.0793747,26.9371659 33.0793747,24.1450381 L33.0793747,23.4368734 C33.0793747,20.6458714 35.3313948,18.381771 38.1100067,18.381771 L57.8829675,18.381771 C60.6615794,18.381771 62.9135995,20.6458714 62.9135995,23.4368734 L62.9135995,24.1450381 C62.9135995,26.9371659 60.6615794,29.2001405 57.8829675,29.2001405" id="Fill-149" stroke="none" fill="#FFFFFF" fill-rule="evenodd"></path>
                                    <path d="M86.2345564,34.5870333 L72.1958439,34.5870333 C70.2228054,34.5870333 68.6239831,32.9804339 68.6239831,30.997798 L68.6239831,30.4956653 C68.6239831,28.5130294 70.2228054,26.90643 72.1958439,26.90643 L86.2345564,26.90643 C88.207595,26.90643 89.8064172,28.5130294 89.8064172,30.4956653 L89.8064172,30.997798 C89.8064172,32.9804339 88.207595,34.5870333 86.2345564,34.5870333" id="Fill-151" stroke="none" fill="#FFFFFF" fill-rule="evenodd"></path>
                                    <path d="M162.868112,33.2024531 L153.830901,33.2024531 C152.560359,33.2024531 151.530704,32.1677896 151.530704,30.8921925 L151.530704,30.5679454 C151.530704,29.2923483 152.560359,28.2576848 153.830901,28.2576848 L162.868112,28.2576848 C164.137535,28.2576848 165.16719,29.2923483 165.16719,30.5679454 L165.16719,30.8921925 C165.16719,32.1677896 164.137535,33.2024531 162.868112,33.2024531" id="Fill-153" stroke="none" fill="#FFFFFF" fill-rule="evenodd"></path>
                                </g>
                            </g>
                        </g>
                        <path d="M206.369089,151.677842 L8.65964825,151.677842 C3.91023864,151.677842 0.0582758519,147.808268 0.0582758519,143.03463 L0.0582758519,0 L214.970461,0 L214.970461,143.03463 C214.970461,147.808268 211.119619,151.677842 206.369089,151.677842 Z" id="Stroke-3"></path>
                    </g>
                    <path d="M168.635244,234 L41.2924365,234 C36.1608938,234 32,229.84756 32,224.726443 L32,67.2735565 C32,62.1524398 36.1608938,58 41.2924365,58 L85.2114735,58 L239.706432,58 C244.839106,58 249,62.1524398 249,67.2735565 L249,224.726443 C249,229.84756 244.839106,234 239.706432,234 L195.418594,234" id="Stroke-36" stroke="#021738" stroke-width="2" stroke-linecap="round" stroke-linejoin="round"></path>
                    <path d="M243,100 L243,114" id="Stroke-38" stroke="#BCE7F7" stroke-width="2" stroke-linecap="round" stroke-linejoin="round"></path>
                    <path d="M206,50 L223,50" id="Stroke-40" stroke="#BCE7F7" stroke-width="2" stroke-linecap="round" stroke-linejoin="round"></path>
                    <path d="M132,50 L192,50" id="Stroke-42" stroke="#BCE7F7" stroke-width="2" stroke-linecap="round" stroke-linejoin="round"></path>
                    <path d="M24,137 L24,88" id="Stroke-44" stroke="#BEE4FE" stroke-width="2" stroke-linecap="round" stroke-linejoin="round"></path>
                    <path d="M51,243 L37.2764809,243 C29.9439516,243 24,236.884941 24,229.341331 L24,150" id="Stroke-46" stroke="#BEE4FE" stroke-width="2" stroke-linecap="round" stroke-linejoin="round"></path>
                    <path d="M106,242 L64,242" id="Stroke-48" stroke="#BEE4FE" stroke-width="2" stroke-linecap="round" stroke-linejoin="round"></path>
                    <path d="M131,242 L117,242" id="Stroke-50" stroke="#BEE4FE" stroke-width="2" stroke-linecap="round" stroke-linejoin="round"></path>
                    <path d="M258,140 L258,227.495459 C258,234.953945 251.699213,241 243.926488,241 L229,241" id="Stroke-52" stroke="#C5D6E2" stroke-width="2" stroke-linecap="round" stroke-linejoin="round"></path>
                    <path d="M256,112 L256,127" id="Stroke-54" stroke="#BEE4FE" stroke-width="2" stroke-linecap="round" stroke-linejoin="round"></path>
                    <path d="M44,67 C41.7910106,67 40,68.7910106 40,71 C40,73.2089894 41.7910106,75 44,75 C46.2089894,75 48,73.2089894 48,71 C48,68.7910106 46.2089894,67 44,67 M44,69.2902949 C44.9424563,69.2902949 45.7097051,70.0575437 45.7097051,71 C45.7097051,71.9436015 44.9424563,72.7097051 44,72.7097051 C43.0575437,72.7097051 42.2902949,71.9436015 42.2902949,71 C42.2902949,70.0575437 43.0575437,69.2902949 44,69.2902949" id="Fill-56" fill="#BEE4FE"></path>
                    <path d="M55,67 C52.7910106,67 51,68.7910106 51,71 C51,73.2089894 52.7910106,75 55,75 C57.2089894,75 59,73.2089894 59,71 C59,68.7910106 57.2089894,67 55,67 M55,69.2902949 C55.9424563,69.2902949 56.7097051,70.0575437 56.7097051,71 C56.7097051,71.9436015 55.9424563,72.7097051 55,72.7097051 C54.0575437,72.7097051 53.2902949,71.9436015 53.2902949,71 C53.2902949,70.0575437 54.0575437,69.2902949 55,69.2902949" id="Fill-58" fill="#BEE4FE"></path>
                    <path d="M67,67 C64.7910106,67 63,68.7910106 63,71 C63,73.2089894 64.7910106,75 67,75 C69.2089894,75 71,73.2089894 71,71 C71,68.7910106 69.2089894,67 67,67 M67,69.2902949 C67.9424563,69.2902949 68.7097051,70.0575437 68.7097051,71 C68.7097051,71.9436015 67.9424563,72.7097051 67,72.7097051 C66.0575437,72.7097051 65.2902949,71.9436015 65.2902949,71 C65.2902949,70.0575437 66.0575437,69.2902949 67,69.2902949" id="Fill-60" fill="#BEE4FE"></path>
                    <path d="M32,82 L247,82" id="Path-2" stroke="#021738" stroke-width="2"></path>
                    <g id="Page-1" transform="translate(121.000000, 109.000000)">
                        <path d="M36.8103898,21.3933306 C36.8103898,30.3516968 29.7031145,37.6142453 20.9362781,37.6142453 C12.1683196,37.6142453 5.06104428,30.3516968 5.06104428,21.3933306 C5.06104428,12.4349644 12.1683196,5.17241594 20.9362781,5.17241594 C29.7031145,5.17241594 36.8103898,12.4349644 36.8103898,21.3933306" id="Fill-1" fill="#FFFFFF"></path>
                        <path d="M36.8103898,21.3933306 C36.8103898,30.3516968 29.7031145,37.6142453 20.9362781,37.6142453 C12.1683196,37.6142453 5.06104428,30.3516968 5.06104428,21.3933306 C5.06104428,12.4349644 12.1683196,5.17241594 20.9362781,5.17241594 C29.7031145,5.17241594 36.8103898,12.4349644 36.8103898,21.3933306 Z" id="Stroke-3" stroke="#FA505D" stroke-width="2" stroke-linecap="round" stroke-linejoin="round"></path>
                        <path d="M0.560368374,16.4559672 C1.0338875,14.4081441 1.79578203,12.4738341 2.79892445,10.7000478" id="Stroke-5" stroke="#BEE4FE" stroke-width="2" stroke-linecap="round" stroke-linejoin="round"></path>
                        <path d="M10.2999388,39.8241973 C4.13521339,36.1011953 0.000336624974,29.2411025 0.000336624974,21.3937893" id="Stroke-7" stroke="#BEE4FE" stroke-width="2" stroke-linecap="round" stroke-linejoin="round"></path>
                        <path d="M30.61851,2.42035264 C32.6876315,3.52452603 34.5525339,4.97267866 36.1425258,6.6891351 C39.6939193,10.5222105 41.8718829,15.6979516 41.8718829,21.3931013 C41.8718829,25.4463234 40.7688751,29.2358281 38.8523569,32.4669399 C36.8303629,35.8769208 33.9017256,38.6631527 30.4075583,40.4770699 C27.5630773,41.9538875 24.3449426,42.7863173 20.9360537,42.7863173" id="Stroke-9" stroke="#BEE4FE" stroke-width="2" stroke-linecap="round" stroke-linejoin="round"></path>
                        <path d="M20.9359414,-0.000114659749 C22.9624238,-0.000114659749 24.9227032,0.294560895 26.7763847,0.843781093" id="Stroke-11" stroke="#BEE4FE" stroke-width="2" stroke-linecap="round" stroke-linejoin="round"></path>
                        <path d="M19.6102001,16.5213232 L25.8085879,20.1778226 C26.7242079,20.7178701 26.7242079,22.0685619 25.8085879,22.6086093 L19.6102001,26.2651087 C18.6945802,26.8051561 17.5500552,26.1298102 17.5500552,25.0497154 L17.5500552,17.7367166 C17.5500552,16.6566217 18.6945802,15.9812758 19.6102001,16.5213232" id="Fill-13" fill="#FA505D"></path>
                    </g>
                    <g id="Page-1" transform="translate(176.000000, 113.000000)">
                        <path d="M90.2205849,171.649896 L7.87928742,171.649896 C3.52749028,171.649896 0.000565756259,168.127445 0.000565756259,163.782561 L0.000565756259,7.86722145 C0.000565756259,3.52233802 3.52749028,-0.000112971488 7.87928742,-0.000112971488 L90.2205849,-0.000112971488 C94.5723821,-0.000112971488 98.1004381,3.52233802 98.1004381,7.86722145 L98.1004381,163.782561 C98.1004381,168.127445 94.5723821,171.649896 90.2205849,171.649896" id="Fill-1" fill="#FFFFFF"></path>
                        <g id="Group-6" transform="translate(0.000000, 20.009510)">
                            <path d="M98.1003249,0.0739963246 L0.000452605007,0.0739963246" id="Fill-3" fill="#FFFFFF"></path>
                            <path d="M98.1003249,0 L0.000452605007,0" id="Stroke-5" stroke="#021738" stroke-width="2" stroke-linecap="round" stroke-linejoin="round"></path>
                        </g>
                        <path d="M7.6509482,11.1801446 L90.4493767,11.1801446" id="Stroke-7" stroke="#BEE4FE" stroke-width="2" stroke-linecap="round" stroke-linejoin="round"></path>
                        <path d="M91.2358405,32.8712009 L91.2358405,44.7716174" id="Stroke-9" stroke="#BCE7F7" stroke-width="2" stroke-linecap="round" stroke-linejoin="round"></path>
                        <path d="M63.7568833,177.018957 L28.4457721,177.018957" id="Stroke-11" stroke="#BEE4FE" stroke-width="2" stroke-linecap="round" stroke-linejoin="round"></path>
                        <path d="M105.555408,69.6672572 L105.555408,166.64989 C105.555408,173.012445 100.390054,178.169593 94.0173752,178.169593 L81.7800673,178.169593" id="Stroke-13" stroke="#BEE4FE" stroke-width="2" stroke-linecap="round" stroke-linejoin="round"></path>
                        <path d="M105.20051,45.6037654 L105.20051,59.191976" id="Stroke-15" stroke="#BEE4FE" stroke-width="2" stroke-linecap="round" stroke-linejoin="round"></path>
                        <path d="M29.9564545,171.649896 L7.87951373,171.649896 C3.52771658,171.649896 -0.000339453756,168.127445 -0.000339453756,163.782561 L-0.000339453756,7.86722145 C-0.000339453756,3.52233802 3.52771658,-0.000112971488 7.87951373,-0.000112971488 L45.1198537,-0.000112971488 L90.2208112,-0.000112971488 C94.5726084,-0.000112971488 98.1006644,3.52233802 98.1006644,7.86722145 L98.1006644,163.782561 C98.1006644,168.127445 94.5726084,171.649896 90.2208112,171.649896 L52.6670422,171.649896" id="Stroke-17" stroke="#021738" stroke-width="2" stroke-linecap="round" stroke-linejoin="round"></path>
                        <g id="Group-22" transform="translate(38.471426, 171.391304)">
                            <path d="M7.87419562,0.258591736 L0.531810884,0.258591736" id="Fill-19" fill="#FFFFFF"></path>
                            <path d="M7.87419562,0 L0.531810884,0" id="Stroke-21" stroke="#021738" stroke-width="2" stroke-linecap="round" stroke-linejoin="round"></path>
                        </g>
                        <g id="Group-26" transform="translate(29.419325, 24.528369)">
                            <path d="M0.229810193,0.908742649 L17.2771778,0.908742649" id="Fill-23" fill="#FFFFFF"></path>
                            <path d="M0.229810193,0 L17.2771778,0" id="Stroke-25" stroke="#021738" stroke-width="2" stroke-linecap="round" stroke-linejoin="round"></path>
                        </g>
                        <g id="Group-30" transform="translate(53.039664, 24.528369)">
                            <path d="M0.0472830012,0.908742649 L12.1363628,0.908742649" id="Fill-27" fill="#FFFFFF"></path>
                            <path d="M0.0472830012,0 L12.1363628,0" id="Stroke-29" stroke="#021738" stroke-width="2" stroke-linecap="round" stroke-linejoin="round"></path>
                        </g>
                        <g id="Group-34" transform="translate(72.216267, 24.528369)">
                            <path d="M0.0403123821,0.908742649 L17.8808703,0.908742649" id="Fill-31" fill="#FFFFFF"></path>
                            <path d="M0.0403123821,0 L17.8808703,0" id="Stroke-33" stroke="#021738" stroke-width="2" stroke-linecap="round" stroke-linejoin="round"></path>
                        </g>
                    </g>
                    <g id="Group-3" transform="translate(181.000000, 132.000000)">
                        <mask id="mask-4" fill="white">
                            <use xlink:href="#path-3"></use>
                        </mask>
                        <g id="Mask"></g>
                        <g id="Group-4" mask="url(#mask-4)">
                            <g transform="translate(4.512212, 11.400498)" id="Page-1">
                                <g transform="translate(0.000000, -0.000000)">
                                    <path d="M58.9222897,141.236307 L78.5092706,141.236307" id="Stroke-1" stroke="#C5D6E2" stroke-width="2" stroke-linecap="round" stroke-linejoin="round"></path>
                                    <path d="M1.82169452,141.236307 L44.8442109,141.236307" id="Stroke-3" stroke="#C5D6E2" stroke-width="2" stroke-linecap="round" stroke-linejoin="round"></path>
                                    <path d="M38.7606865,148.669797 L78.5098367,148.669797" id="Stroke-5" stroke="#C5D6E2" stroke-width="2" stroke-linecap="round" stroke-linejoin="round"></path>
                                    <path d="M1.82169452,148.669797 L22.3722294,148.669797" id="Stroke-7" stroke="#C5D6E2" stroke-width="2" stroke-linecap="round" stroke-linejoin="round"></path>
                                    <path d="M1.82169452,155.1741 L78.5097235,155.1741" id="Stroke-9" stroke="#C5D6E2" stroke-width="2" stroke-linecap="round" stroke-linejoin="round"></path>
                                    <path d="M1.82169452,161.678404 L23.7467941,161.678404" id="Stroke-11" stroke="#C5D6E2" stroke-width="2" stroke-linecap="round" stroke-linejoin="round"></path>
                                    <path d="M72.8454752,133.075239 L7.48571631,133.075239 C4.35727952,133.075239 1.82214742,130.551448 1.82214742,127.439523 L1.82214742,89.309992 C1.82214742,86.1969404 4.35727952,83.673149 7.48571631,83.673149 L72.8454752,83.673149 C75.973912,83.673149 78.5090441,86.1969404 78.5090441,89.309992 L78.5090441,127.439523 C78.5090441,130.551448 75.973912,133.075239 72.8454752,133.075239 Z" id="Stroke-13" stroke="#BEE4FE" stroke-width="2" stroke-linecap="round" stroke-linejoin="round"></path>
                                    <path d="M9.17187921,91.0602504 L68.8465563,91.0602504" id="Stroke-15" stroke="#BEE4FE" stroke-width="2" stroke-linecap="round" stroke-linejoin="round"></path>
                                    <path d="M8.97192194,96.6353678 L38.8126573,96.6353678" id="Stroke-17" stroke="#BEE4FE" stroke-width="2" stroke-linecap="round" stroke-linejoin="round"></path>
                                    <path d="M69.8071664,126.6007 L10.0770085,126.6007 C9.10552872,126.6007 8.31747515,125.816522 8.31747515,124.84982 L8.31747515,108.376447 C8.31747515,107.409745 9.10552872,106.625567 10.0770085,106.625567 L69.8071664,106.625567 C70.7786462,106.625567 71.5666998,107.409745 71.5666998,108.376447 L71.5666998,124.84982 C71.5666998,125.816522 70.7786462,126.6007 69.8071664,126.6007" id="Fill-19" fill="#E7F6FC"></path>
                                    <path d="M14.0644917,60.3971049 L66.266247,60.3971049" id="Stroke-21" stroke="#BEE4FE" stroke-width="2" stroke-linecap="round" stroke-linejoin="round"></path>
                                    <path d="M14.0644917,65.9722222 L66.266247,65.9722222" id="Stroke-23" stroke="#BEE4FE" stroke-width="2" stroke-linecap="round" stroke-linejoin="round"></path>
                                    <path d="M26.8491889,71.5473396 L53.4822291,71.5473396" id="Stroke-25" stroke="#BEE4FE" stroke-width="2" stroke-linecap="round" stroke-linejoin="round"></path>
                                    <path d="M75.1427193,49.4024279 L5.18824577,49.4024279 C3.32907342,49.4024279 1.8220342,47.9028001 1.8220342,46.0516442 L1.8220342,3.35112176 C1.8220342,1.49996584 3.32907342,0.000338007776 5.18824577,0.000338007776 L75.1427193,0.000338007776 C77.0018917,0.000338007776 78.5100632,1.49996584 78.5100632,3.35112176 L78.5100632,46.0516442 C78.5100632,47.9028001 77.0018917,49.4024279 75.1427193,49.4024279" id="Fill-35" fill="#F2FAFD"></path>
                                    <path d="M30.7249178,36.6079322 C29.2439206,36.0231788 27.622523,35.8845956 26.0633998,36.2079564 L13.7568564,38.7666752 C11.4062828,39.2556598 8.9583348,38.6844267 7.06972367,37.2084594 L5.35208392,35.8654418 C4.29455227,35.0384494 3.07963635,34.512284 1.82169452,34.2790586 L1.82169452,46.5622612 C1.82169452,48.1306173 3.10001705,49.4026533 4.67612418,49.4026533 L58.8095165,49.4026533 L47.8345119,43.363581 L30.7249178,36.6079322 Z" id="Fill-41" fill="#BEE4FE"></path>
                                    <path d="M78.5096103,46.5620359 L78.5096103,29.6053124 L77.0229517,31.2547904 C74.6395426,33.8991379 70.8011782,34.686696 67.5606476,33.1983351 L62.4213155,30.8356608 C59.8069251,29.6346065 56.7498208,29.8982525 54.3822633,31.5308301 L28.4546216,49.4024279 L75.6551806,49.4024279 C77.2312877,49.4024279 78.5096103,48.130392 78.5096103,46.5620359" id="Fill-43" fill="#92D1FD"></path>
                                    <path d="M75.1427193,49.4024279 L5.18824577,49.4024279 C3.32907342,49.4024279 1.8220342,47.9028001 1.8220342,46.0516442 L1.8220342,3.35112176 C1.8220342,1.49996584 3.32907342,0.000338007776 5.18824577,0.000338007776 L75.1427193,0.000338007776 C77.0018917,0.000338007776 78.5100632,1.49996584 78.5100632,3.35112176 L78.5100632,46.0516442 C78.5100632,47.9028001 77.0018917,49.4024279 75.1427193,49.4024279 Z" id="Stroke-45" stroke="#92D1FD" stroke-width="2" stroke-linecap="round" stroke-linejoin="round"></path>
                                    <path d="M71.0279112,21.096085 L63.5606507,21.096085 C62.3966865,21.096085 61.452381,20.15755 61.452381,18.9981834 C61.452381,17.8399434 62.3966865,16.9014085 63.5606507,16.9014085 L71.0279112,16.9014085 C72.1918753,16.9014085 73.1361809,17.8399434 73.1361809,18.9981834 C73.1361809,20.15755 72.1918753,21.096085 71.0279112,21.096085" id="Fill-47" fill="#FFFFFF"></path>
                                </g>
                            </g>
                        </g>
                        <g id="Group-2" mask="url(#mask-4)" stroke-linecap="round" stroke-width="2" stroke-linejoin="round">
                            <g transform="translate(90.846786, -65.600548)">
                                <path d="M14.8413536,27.5521611 C14.8413536,29.076088 13.6033937,30.3108486 12.0755185,30.3108486 C10.5476433,30.3108486 9.30968346,29.076088 9.30968346,27.5521611 C9.30968346,26.0282343 10.5476433,24.7934737 12.0755185,24.7934737 C13.6033937,24.7934737 14.8413536,26.0282343 14.8413536,27.5521611 Z" id="Stroke-216" stroke="#92D1FD"></path>
                                <path d="M4.83959036,0.845976769 L4.83959036,9.7636926" id="Stroke-224" stroke="#95D1FC"></path>
                                <path d="M9.30989508,5.30472915 L0.369074022,5.30472915" id="Stroke-226" stroke="#95D1FC"></path>
                            </g>
                        </g>
                        <g id="Group" mask="url(#mask-4)" stroke-linecap="round" stroke="#F9515D" stroke-width="2" stroke-linejoin="round">
                            <g transform="translate(-101.061514, 147.183099)">
                                <path d="M5.2301158,0.217265061 L5.2301158,10.6504649" id="Stroke-208"></path>
                                <path d="M10.4601258,5.43386498 L-0.000105808533,5.43386498" id="Stroke-210"></path>
                            </g>
                        </g>
                        <path d="M-4.51933108,-119.863682 C-3.06521096,-118.869653 -2.69588898,-116.891089 -3.69482998,-115.44412 C-4.69377098,-113.997151 -6.68211329,-113.631002 -8.13623341,-114.623674 C-9.58899071,-115.617702 -9.95831269,-117.596266 -8.96073451,-119.043235 C-7.96179351,-120.490204 -5.97345119,-120.85771 -4.51933108,-119.863682 L-4.51933108,-119.863682 Z" id="Stroke-20" stroke="#BCE7F7" stroke-width="2" stroke-linecap="round" mask="url(#mask-4)"></path>
                        <ellipse id="Oval" fill="#FFFFFF" mask="url(#mask-4)" cx="41.3214286" cy="28.5211268" rx="8.47619048" ry="8.45070423"></ellipse>
                    </g>
                    <g id="Group-7" transform="translate(31.000000, 274.000000)" stroke="#CAE8FE" stroke-width="2" stroke-linecap="round">
                        <path d="M5.45454545,0.039066723 L5.45454545,11.0884274" id="Stroke-37"></path>
                        <path d="M11.1210746,5.45573339 L0,5.45573339" id="Stroke-39"></path>
                    </g>
                    <path d="M44,257 C44,259.208625 42.2086247,261 40,261 C37.7913753,261 36,259.208625 36,257 C36,254.791375 37.7913753,253 40,253 C42.2086247,253 44,254.791375 44,257 Z" id="Stroke-45" stroke="#FBA7AE" stroke-width="2" stroke-linecap="round" stroke-linejoin="round"></path>
                    <path d="M131,298.5 C131,299.880467 129.880745,301 128.500621,301 C127.119255,301 126,299.880467 126,298.5 C126,297.119533 127.119255,296 128.500621,296 C129.880745,296 131,297.119533 131,298.5" id="Fill-51" fill="#C1D4E5"></path>
                    <path d="M85,303.5 C85,304.880467 83.8807453,306 82.5006211,306 C81.1192547,306 80,304.880467 80,303.5 C80,302.119533 81.1192547,301 82.5006211,301 C83.8807453,301 85,302.119533 85,303.5" id="Fill-53" fill="#C1D4E5"></path>
                    <g id="Group-5" transform="translate(117.000000, 21.000000)" stroke="#F9515D" stroke-width="2" stroke-linecap="round" stroke-linejoin="round">
                        <path d="M4,0 L4,7.61030435" id="Stroke-34"></path>
                        <path d="M0,4 L7.59825263,4" id="Stroke-36"></path>
                    </g>
                    <path d="M184,5 C184,7.7609986 181.761676,10 178.999564,10 C176.238324,10 174,7.7609986 174,5 C174,2.2390014 176.238324,-8.8817842e-16 178.999564,-8.8817842e-16 C181.761676,-8.8817842e-16 184,2.2390014 184,5 Z" id="Stroke-70" stroke="#92D1FD" stroke-width="2" stroke-linecap="round" stroke-linejoin="round"></path>
                    <path d="M62,21 L62,33" id="Stroke-86" stroke="#92D1FD" stroke-width="2" stroke-linecap="round" stroke-linejoin="round"></path>
                    <path d="M57,26 L67.9439311,26" id="Stroke-88" stroke="#92D1FD" stroke-width="2" stroke-linecap="round" stroke-linejoin="round"></path>
                    <path d="M290,73.5 C290,74.8804672 288.880745,76 287.500621,76 C286.119255,76 285,74.8804672 285,73.5 C285,72.1195328 286.119255,71 287.500621,71 C288.880745,71 290,72.1195328 290,73.5" id="Fill-3" fill="#E7F6FC"></path>
                    <path d="M264,39.5 C264,41.4325466 262.432547,43 260.5,43 C258.567453,43 257,41.4325466 257,39.5 C257,37.5674534 258.567453,36 260.5,36 C262.432547,36 264,37.5674534 264,39.5 Z" id="Stroke-23-Copy-2" stroke="#BEE4FE" stroke-width="2" stroke-linecap="round"></path>
                    <path d="M287,54.5 C287,55.8803904 285.88039,57 284.5,57 C283.11961,57 282,55.8803904 282,54.5 C282,53.1196096 283.11961,52 284.5,52 C285.88039,52 287,53.1196096 287,54.5 Z" id="Stroke-23-Copy-3" stroke="#F9515D" stroke-width="2" stroke-linecap="round"></path>
                    <path d="M247,38.5 C247,39.8804672 245.880745,41 244.500621,41 C243.119255,41 242,39.8804672 242,38.5 C242,37.1195328 243.119255,36 244.500621,36 C245.880745,36 247,37.1195328 247,38.5" id="Fill-25-Copy-2" fill="#FDD4D7"></path>
                </g>
            </g>
        </g>
    </g>
</svg>